#N canvas 377 118 1112 847 10;
#X obj 140 21 ctlin 1;
#X floatatom 245 103 5 0 0 0 - - -;
#X floatatom 438 105 5 0 0 0 - - -;
#X floatatom 631 103 5 0 0 0 - - -;
#X obj 245 44 ctlin 2;
#X obj 438 46 ctlin 3;
#X obj 631 44 ctlin 4;
#X obj 666 481 hip~ 5;
#X obj 666 449 tabread4~ sample-table;
#X obj 666 414 line~;
#X floatatom 666 311 0 0 100 0 - - -;
#X obj 666 389 pack 0 100;
#X obj 666 555 output~;
#X obj 758 365 loadbang;
#X msg 758 389 read ../sound/voice.wav sample-table;
#X obj 758 414 soundfiler;
#X floatatom 140 113 5 0 0 0 - - -;
#X obj 140 137 / 127;
#X floatatom 140 184 5 0 0 0 - - -;
#X obj 140 161 * 4;
#X obj 140 223 moses 1;
#X floatatom 140 281 5 0 0 0 - - -;
#X floatatom 179 321 5 0 0 0 - - -;
#X floatatom 218 358 5 0 0 0 - - -;
#X obj 179 258 moses 2;
#X obj 218 318 moses 3;
#X floatatom 257 387 5 0 0 0 - - -;
#X obj 199 497 hradio 15 1 0 4 empty empty empty 0 -8 0 10 -262144
-1 -1 0;
#X obj 199 457 change;
#X msg 140 318 0;
#X msg 179 357 1;
#X msg 218 395 2;
#X msg 257 421 3;
#X obj 140 50 average;
#X obj 140 82 i;
#X obj 245 173 demux 0 1 2 3;
#X obj 199 539 s demuxindex;
#X obj 320 140 r demuxindex;
#X floatatom 245 213 5 0 0 0 - - -;
#X floatatom 286 213 5 0 0 0 - - -;
#X floatatom 328 212 5 0 0 0 - - -;
#X floatatom 367 212 5 0 0 0 - - -;
#X obj 438 173 demux 0 1 2 3;
#X obj 513 140 r demuxindex;
#X floatatom 438 213 5 0 0 0 - - -;
#X floatatom 476 213 5 0 0 0 - - -;
#X floatatom 518 212 5 0 0 0 - - -;
#X floatatom 557 212 5 0 0 0 - - -;
#X obj 631 173 demux 0 1 2 3;
#X obj 706 140 r demuxindex;
#X floatatom 631 213 5 0 0 0 - - -;
#X floatatom 672 213 5 0 0 0 - - -;
#X floatatom 714 212 5 0 0 0 - - -;
#X floatatom 753 212 5 0 0 0 - - -;
#N canvas 0 22 450 300 (subpatch) 0;
#X array sample-table 44104 float 0;
#X coords 0 1.02 44103 -1.02 200 130 1;
#X restore 828 460 graph;
#X obj 666 365 * 441;
#X connect 0 0 33 0;
#X connect 1 0 35 0;
#X connect 2 0 42 0;
#X connect 3 0 48 0;
#X connect 4 0 1 0;
#X connect 5 0 2 0;
#X connect 6 0 3 0;
#X connect 7 0 12 0;
#X connect 7 0 12 1;
#X connect 8 0 7 0;
#X connect 9 0 8 0;
#X connect 10 0 55 0;
#X connect 11 0 9 0;
#X connect 13 0 14 0;
#X connect 14 0 15 0;
#X connect 16 0 17 0;
#X connect 17 0 19 0;
#X connect 18 0 20 0;
#X connect 19 0 18 0;
#X connect 20 0 21 0;
#X connect 20 1 24 0;
#X connect 21 0 29 0;
#X connect 22 0 30 0;
#X connect 23 0 31 0;
#X connect 24 0 22 0;
#X connect 24 1 25 0;
#X connect 25 0 23 0;
#X connect 25 1 26 0;
#X connect 26 0 32 0;
#X connect 27 0 36 0;
#X connect 28 0 27 0;
#X connect 29 0 28 0;
#X connect 30 0 28 0;
#X connect 31 0 28 0;
#X connect 32 0 28 0;
#X connect 33 0 34 0;
#X connect 34 0 16 0;
#X connect 35 0 38 0;
#X connect 35 1 39 0;
#X connect 35 2 40 0;
#X connect 35 3 41 0;
#X connect 37 0 35 1;
#X connect 38 0 10 0;
#X connect 42 0 44 0;
#X connect 42 1 45 0;
#X connect 42 2 46 0;
#X connect 42 3 47 0;
#X connect 43 0 42 1;
#X connect 48 0 50 0;
#X connect 48 1 51 0;
#X connect 48 2 52 0;
#X connect 48 3 53 0;
#X connect 49 0 48 1;
#X connect 55 0 11 0;
