#N canvas 538 42 1130 942 10;
#X obj 139 18 ctlin 1;
#X obj 195 18 ctlin 2;
#X obj 248 19 ctlin 3;
#X obj 300 20 ctlin 4;
#X obj 118 351 hip~ 5;
#X obj 118 284 line~;
#X floatatom 118 181 0 0 100 0 - - -;
#X obj 210 235 loadbang;
#X obj 210 284 soundfiler;
#N canvas 0 22 450 300 (subpatch) 0;
#X array sample1 44104 float 0;
#X coords 0 1.02 44103 -1.02 200 130 1 0 0;
#X restore 280 330 graph;
#X floatatom 139 84 5 0 0 0 - - -;
#X floatatom 195 82 5 0 0 0 - - -;
#X floatatom 247 81 5 0 0 0 - - -;
#X floatatom 300 83 5 0 0 0 - - -;
#X obj 509 351 hip~ 5;
#X obj 509 284 line~;
#X floatatom 509 181 0 0 100 0 - - -;
#X obj 601 235 loadbang;
#X obj 601 284 soundfiler;
#N canvas 0 22 450 300 (subpatch) 0;
#X array sample2 44104 float 0;
#X coords 0 1.02 44103 -1.02 200 130 1 0 0;
#X restore 671 330 graph;
#X obj 509 235 * 441;
#X obj 511 611 hip~ 5;
#X obj 511 544 line~;
#X floatatom 511 441 0 0 100 0 - - -;
#X obj 603 495 loadbang;
#X obj 603 544 soundfiler;
#N canvas 0 22 450 300 (subpatch) 0;
#X array sample4 44104 float 0;
#X coords 0 1.02 44103 -1.02 200 130 1 0 0;
#X restore 673 590 graph;
#X obj 511 495 * 441;
#X obj 111 621 hip~ 5;
#X obj 111 554 line~;
#X floatatom 111 451 0 0 100 0 - - -;
#X obj 203 505 loadbang;
#X obj 203 554 soundfiler;
#N canvas 0 22 450 300 (subpatch) 0;
#X array sample3 44104 float 0;
#X coords 0 1.02 44103 -1.02 200 130 1;
#X restore 273 600 graph;
#X obj 499 770 /~ 4;
#X obj 118 319 tabread4~ sample1;
#X obj 509 319 tabread4~ sample2;
#X obj 111 589 tabread4~ sample3;
#X obj 511 579 tabread4~ sample4;
#X obj 139 115 s samp1;
#X obj 195 116 s samp2;
#X obj 247 116 s samp3;
#X obj 300 115 s samp4;
#X obj 62 181 r samp1;
#X obj 452 180 r samp2;
#X obj 50 452 r samp3;
#X obj 454 442 r samp4;
#X msg 603 519 read ./sound/lifepats.wav sample4;
#X obj 118 235 * 441;
#X msg 210 259 read ./sound/shootingstar.wav sample1;
#X obj 118 387 s~ out1;
#X obj 509 387 s~ out2;
#X obj 111 664 s~ out3;
#X obj 511 656 s~ out4;
#X obj 528 696 r~ out1;
#X obj 530 732 r~ out2;
#X obj 595 696 r~ out3;
#X obj 594 733 r~ out4;
#X msg 601 259 read ./sound/shadowdarkcore.wav sample2;
#X msg 203 529 read ./sound/Gaga_rah_Rah.wav sample3;
#X obj 111 531 pack 0 600;
#X obj 112 505 * 441;
#X obj 118 259 pack 0 400;
#X obj 509 259 pack 0 100;
#X obj 511 519 pack 0 300;
#X obj 390 841 abstract/pd_out dsp_out;
#X obj 139 48 change;
#X obj 195 48 change;
#X obj 247 46 change;
#X obj 300 46 change;
#X connect 0 0 66 0;
#X connect 1 0 67 0;
#X connect 2 0 68 0;
#X connect 3 0 69 0;
#X connect 4 0 50 0;
#X connect 5 0 35 0;
#X connect 6 0 48 0;
#X connect 7 0 49 0;
#X connect 10 0 39 0;
#X connect 11 0 40 0;
#X connect 12 0 41 0;
#X connect 13 0 42 0;
#X connect 14 0 51 0;
#X connect 15 0 36 0;
#X connect 16 0 20 0;
#X connect 17 0 58 0;
#X connect 20 0 63 0;
#X connect 21 0 53 0;
#X connect 22 0 38 0;
#X connect 23 0 27 0;
#X connect 24 0 47 0;
#X connect 27 0 64 0;
#X connect 28 0 52 0;
#X connect 29 0 37 0;
#X connect 30 0 61 0;
#X connect 31 0 59 0;
#X connect 34 0 65 3;
#X connect 34 0 65 2;
#X connect 35 0 4 0;
#X connect 36 0 14 0;
#X connect 37 0 28 0;
#X connect 38 0 21 0;
#X connect 43 0 6 0;
#X connect 44 0 16 0;
#X connect 45 0 30 0;
#X connect 46 0 23 0;
#X connect 47 0 25 0;
#X connect 48 0 62 0;
#X connect 49 0 8 0;
#X connect 54 0 34 0;
#X connect 55 0 34 0;
#X connect 56 0 34 0;
#X connect 57 0 34 0;
#X connect 58 0 18 0;
#X connect 59 0 32 0;
#X connect 60 0 29 0;
#X connect 61 0 60 0;
#X connect 62 0 5 0;
#X connect 63 0 15 0;
#X connect 64 0 22 0;
#X connect 66 0 10 0;
#X connect 67 0 11 0;
#X connect 68 0 12 0;
#X connect 69 0 13 0;
