#N canvas 594 116 994 783 10;
#X obj 31 22 ctlin 1;
#X obj 89 22 ctlin 2;
#X obj 145 22 ctlin 3;
#X floatatom 31 47 5 0 0 0 - - -;
#X floatatom 89 46 5 0 0 0 - - -;
#X floatatom 145 47 5 0 0 0 - - -;
#X obj 31 78 s cc1;
#X obj 89 77 s cc2;
#X obj 145 76 s cc3;
#X obj 518 680 abstract/pd_out;
#X obj 329 283 *~;
#X floatatom 329 226 0 0 0 0 - - -;
#X obj 417 263 line~;
#X floatatom 233 240 0 0 0 0 - - -;
#X obj 233 354 cos~;
#X obj 233 310 +~;
#X obj 329 251 osc~ 0;
#X obj 417 237 pack 0 50;
#X floatatom 417 184 0 0 0 0 - - -;
#X obj 417 211 / 100;
#X text 391 124 modulation index;
#X text 391 139 in hundredths;
#X text 230 174 carrier;
#X text 231 192 frequency;
#X text 315 177 frequency;
#X text 316 160 modulation;
#X text 138 251 carrier;
#X text 138 266 phase -->;
#X text 111 294 phase;
#X text 110 309 modulation-->;
#X text 117 336 output;
#X text 116 353 waveform -->;
#X obj 233 267 phasor~;
#X obj 232 389 hip~;
#X text 513 217 ramped to avoid;
#X text 512 233 clicks.);
#X text 512 201 (the index is;
#X obj 233 211 r cc1;
#X obj 329 200 r cc2;
#X obj 415 156 r cc3;
#X obj 651 368 cos~;
#X obj 651 322 *~;
#X obj 694 370 cos~;
#X obj 735 271 wrap~;
#X obj 698 270 -~;
#X obj 694 347 +~;
#X obj 692 405 -~;
#X obj 713 431 *~;
#X obj 698 240 samphold~;
#X floatatom 715 120 4 0 200 0 - - -;
#X obj 715 143 / 10;
#X obj 715 192 line~;
#X text 715 59 freq. (in;
#X text 715 79 tenths of;
#X text 715 99 fundamental);
#X obj 715 169 pack 0 50;
#X obj 604 175 phasor~;
#X floatatom 604 152 4 0 0 0 - - -;
#X text 589 99 fundamental;
#X text 589 119 (= mod freq);
#X text 918 146 index;
#X text 918 166 (percent);
#X floatatom 918 187 4 0 500 0 - - -;
#X obj 868 253 cos~;
#X obj 918 256 line~;
#X obj 868 276 *~;
#X obj 918 210 / 100;
#X obj 918 233 pack 0 50;
#X obj 651 345 +~;
#X text 871 302 modulating;
#X text 871 322 oscillator;
#X text 523 344 both phases-->;
#X text 492 327 add modulator to;
#X obj 715 493 hip~;
#X obj 690 457 +~;
#X obj 232 424 *~ 0.5;
#X obj 695 542 *~ 0.5;
#X msg 693 16 loadbang;
#X msg 784 47 28;
#X msg 603 62 22;
#X floatatom 200 47 5 0 0 0 - - -;
#X obj 200 22 ctlin 4;
#X obj 200 76 s cc4;
#X obj 902 108 r cc4;
#X connect 0 0 3 0;
#X connect 1 0 4 0;
#X connect 2 0 5 0;
#X connect 3 0 6 0;
#X connect 4 0 7 0;
#X connect 5 0 8 0;
#X connect 10 0 15 1;
#X connect 11 0 16 0;
#X connect 12 0 10 1;
#X connect 13 0 32 0;
#X connect 14 0 33 0;
#X connect 15 0 14 0;
#X connect 16 0 10 0;
#X connect 17 0 12 0;
#X connect 18 0 19 0;
#X connect 19 0 17 0;
#X connect 32 0 15 0;
#X connect 33 0 75 0;
#X connect 37 0 13 0;
#X connect 38 0 11 0;
#X connect 39 0 18 0;
#X connect 40 0 46 1;
#X connect 40 0 74 0;
#X connect 41 0 68 0;
#X connect 42 0 46 0;
#X connect 43 0 44 1;
#X connect 43 0 47 1;
#X connect 44 0 41 1;
#X connect 45 0 42 0;
#X connect 46 0 47 0;
#X connect 47 0 74 1;
#X connect 48 0 44 0;
#X connect 48 0 43 0;
#X connect 49 0 50 0;
#X connect 50 0 55 0;
#X connect 51 0 48 0;
#X connect 55 0 51 0;
#X connect 56 0 48 1;
#X connect 56 0 63 0;
#X connect 56 0 41 0;
#X connect 56 0 45 1;
#X connect 57 0 56 0;
#X connect 62 0 66 0;
#X connect 63 0 65 0;
#X connect 64 0 65 1;
#X connect 65 0 68 1;
#X connect 66 0 67 0;
#X connect 67 0 64 0;
#X connect 68 0 45 0;
#X connect 68 0 40 0;
#X connect 73 0 76 0;
#X connect 74 0 73 0;
#X connect 75 0 9 3;
#X connect 75 0 9 2;
#X connect 76 0 9 3;
#X connect 76 0 9 2;
#X connect 77 0 78 0;
#X connect 77 0 79 0;
#X connect 78 0 49 0;
#X connect 79 0 57 0;
#X connect 80 0 82 0;
#X connect 81 0 80 0;
#X connect 83 0 62 0;
